<svg width="97" height="27" fill="none" xmlns="http://www.w3.org/2000/svg"><path d="M16.4 22.1l1.9-4.1.3-4.7-.4-5.1L17 5.3l-3.4-2.6-5.1-.9L1 2l.2 7.3-.2 7.8-.1 8.1 7.9.2 4.9-1 2.7-2.3zM12.6 21l-3.2 1.2H4.5l-.2-5.9.2-7L4.8 5h4.5l3.6 1.2L14.7 9l.6 4.3-.5 4.7-2.2 3zm18.9 4l-.1-6.2V12l.3-7.1 6.8.2.8-3.4-6 .3h-6.5l-6.2-.2.9 3.4L28 5l.2 6.5-.2 6.3-.3 8 3.8-.8zm32.6.1l-.2-7.5-.1-7.9V1.6l-4.6.8-2 5.5-1.9 5.7-2.3 6.7-2.4-7.5L49.4 8l-2.1-6.4-4.3.5-.2 7v8.3l-.5 8.2L46 25l-.1-8.6L46 7l2.5 9.2 2.7 8.8 3.4-.5 2.8-8.1 3.2-9.7.1 11-.2 8.1 3.6-.7zm32.1.7l-.8-3.2-3.9-.2.5-8.4 2.5-.4.9-2.7-3.8.1.2-6.6 3-.4.9-2.6-5.8.1-5.2-.1 1.1 3.1 2.9-.1.1 6.9-2.9.1-.7 3.1 3.5-.5v8.5l-5.1.5 1.4 2.9 5.5-.2 5.7.1zm-16.6-9l.4-6V4.5l-2.7-1 .1 7.1-.2 4.9 2.4 1.3zm-.2 9.6l2.2-2.9 1.5-3 .9-3.2.4-6.3-.2-8.9L81.4.7l.4 7.8-.5 7.9-.8 2.8-1.2 2.6-3.6 3.7 3.7.9zM76.7 22l.6-3.2-3.3 1 .2-6.4L76 13l.5-2.5-2.4.2-.1-5.6 2.2-.1.9-2.8-9-.1.5 2.7 2.8.4-.4 5.5-2.7.2.8 2.6 2.1.1-.1 7-4.1 1 2.3 2.6 3.7-1 3.7-1.2z" fill="#000"/></svg>