<svg width="458" height="400" fill="none" xmlns="http://www.w3.org/2000/svg"><path d="M335.7 49.7l-42-42.2c-4.1-4.1-10.9-4.1-15 0l-42.2 42c-4.2 4.2-4.2 10.9-.1 15.1l42 42.2c4.2 4.2 10.9 4.2 15.1 0l42.2-42c4.2-4.1 4.2-10.8 0-15.1z" fill="#05C0FF" stroke="#fff" stroke-width="5"/><path d="M278.4 106.8l-42-42.2c-4.1-4.2-10.9-4.2-15 0l-42.2 42c-4.2 4.1-4.2 10.9-.1 15l42 42.2c4.2 4.2 10.9 4.2 15.1.1l42.2-42c4.2-4.2 4.2-10.9 0-15.1z" fill="#05C0FF" stroke="#fff" stroke-width="5"/><path d="M335.5 164l-42-42.1c-4.2-4.2-10.9-4.2-15.1-.1l-42.2 42c-4.2 4.2-4.2 10.9 0 15.2l42 42.1c4.1 4.2 10.8 4.2 15.1 0l42.1-42c4.2-4.1 4.2-10.9.1-15.1z" fill="#0070D9" stroke="#fff" stroke-width="5"/><path d="M221.1 163.8l-42-42.2c-4.1-4.1-10.9-4.2-15.1 0l-42.1 42c-4.2 4.1-4.2 10.9-.1 15.1l42 42.2c4.2 4.1 10.9 4.1 15.2 0l42.1-42c4.2-4.2 4.2-10.9 0-15.1z" fill="#05C0FF" stroke="#fff" stroke-width="5"/><path d="M163.8 220.9l-42-42.2c-4.1-4.2-10.8-4.2-15-.1l-42.2 42.1c-4.2 4.1-4.2 10.8-.1 15l42 42.3c4.2 4 10.9 4 15.1 0l42.2-42c4.2-4.2 4.2-11 0-15.1zM164.1 106.5l-42-42.1c-4.1-4.2-10.9-4.2-15.1-.1l-42.1 42c-4.2 4.2-4.2 10.9-.1 15.1l42 42.2c4.2 4.2 10.9 4.2 15.1 0l42.1-42c4.3-4.1 4.3-10.9.1-15.1z" fill="#05C0FF" stroke="#fff" stroke-width="5"/><path d="M106.8 163.6l-42-42.2c-4.1-4.2-10.8-4.2-15.1-.1l-42.2 42c-4.1 4.2-4.1 10.9 0 15.1l42 42.2c4.2 4.2 10.9 4.2 15.1 0l42.2-42c4.2-4.1 4.2-10.9 0-15z" fill="#05C0FF" stroke="#fff" stroke-width="5"/><path d="M278 335.4l-42-42.2c-4.2-4.2-11-4.2-15.1 0l-42.2 42c-4.2 4.1-4.2 10.8-.1 15.1l42 42.2c4.2 4.1 10.9 4.1 15.1 0l42.2-42c4.1-4.2 4.1-10.9.1-15.1zM449.8 164.4l-42-42.2c-4.2-4.2-10.9-4.2-15.1-.1l-42.2 42c-4.1 4.2-4.2 10.9 0 15.1l42 42.2c4.1 4.2 10.9 4.2 15.1 0l42.2-42c4.2-4.1 4.2-10.9 0-15zM278.2 221.1l-42-42.1c-4.2-4.2-10.9-4.3-15.1-.1l-42.1 42c-4.3 4.1-4.3 10.9-.1 15.1l42 42.2c4.1 4.1 10.9 4.1 15.1 0l42.1-42c4.2-4.2 4.2-10.9.1-15.1z" fill="#0070D9" stroke="#fff" stroke-width="5"/></svg>