<svg width="460" height="400" fill="none" xmlns="http://www.w3.org/2000/svg"><path d="m240.045 45.968 43.889-43.679a7.814 7.814 0 0 1 11.052 0l43.679 43.89a7.814 7.814 0 0 1 0 11.05l-43.89 43.68a7.814 7.814 0 0 1-11.051 0l-43.679-43.89a7.814 7.814 0 0 1 0-11.051ZM180.602 105.304l43.889-43.679a7.813 7.813 0 0 1 11.051 0l43.679 43.889a7.815 7.815 0 0 1 0 11.052l-43.889 43.679a7.814 7.814 0 0 1-11.051 0l-43.679-43.89a7.812 7.812 0 0 1 0-11.051Z" fill="#05C0FF"/><path d="m239.832 164.71 43.89-43.634a7.819 7.819 0 0 1 11.051 0l43.679 43.845a7.8 7.8 0 0 1 0 11.04l-43.89 43.739a7.819 7.819 0 0 1-11.051 0l-43.679-43.845c-3.052-3.154-3.052-8.096 0-11.145Z" fill="#0070D9"/><path d="m121.151 164.538 43.856-43.678a7.802 7.802 0 0 1 11.043 0l43.646 43.889a7.817 7.817 0 0 1 0 11.051l-43.856 43.679a7.804 7.804 0 0 1-11.043 0l-43.646-43.889a7.636 7.636 0 0 1 0-11.052ZM61.597 223.755l43.873-43.662a7.81 7.81 0 0 1 11.047 0l43.662 43.873a7.81 7.81 0 0 1 0 11.047l-43.872 43.662a7.81 7.81 0 0 1-11.047 0l-43.663-43.873c-3.156-3.051-3.05-7.996 0-11.047ZM61.819 104.988l43.889-43.68a7.813 7.813 0 0 1 11.051 0l43.679 43.89a7.814 7.814 0 0 1 0 11.051l-43.889 43.679a7.815 7.815 0 0 1-11.052 0l-43.678-43.889a7.813 7.813 0 0 1 0-11.051Z" fill="#05C0FF"/><path d="m180.063 342.769 43.889-43.679a7.814 7.814 0 0 1 11.051 0l43.679 43.889a7.815 7.815 0 0 1 0 11.052l-43.889 43.678a7.813 7.813 0 0 1-11.052 0l-43.678-43.889a7.812 7.812 0 0 1 0-11.051ZM358.617 164.954l43.873-43.662a7.81 7.81 0 0 1 11.047 0l43.662 43.873a7.81 7.81 0 0 1 0 11.047l-43.873 43.662a7.81 7.81 0 0 1-11.047 0l-43.662-43.873c-3.156-3.051-3.051-7.996 0-11.047ZM180.279 223.988l43.89-43.679a7.812 7.812 0 0 1 11.051 0l43.679 43.889a7.814 7.814 0 0 1 0 11.051l-43.889 43.679a7.815 7.815 0 0 1-11.052 0l-43.679-43.889a7.814 7.814 0 0 1 0-11.051Z" fill="#0070D9"/><path d="m2.366 164.538 43.856-43.678a7.802 7.802 0 0 1 11.043 0l43.645 43.889a7.817 7.817 0 0 1 0 11.051l-43.855 43.679a7.804 7.804 0 0 1-11.043 0L2.366 175.59a7.636 7.636 0 0 1 0-11.052Z" fill="#05C0FF"/></svg>