<svg width="147" height="28" fill="none" xmlns="http://www.w3.org/2000/svg"><path d="M15.3 26.4l-.1-6.1v-6.4l.2-4.4L18.6 6l3-4.2-3.6-1-1.6 2.5L14.1 6l-3.3 3-4.4 3.5L0 16l4.1 1.8 4.5-3 3.3-2.5v2.2l-.1 6-.3 6.8 3.8-.9zM48.4 5.3l.8-3.5-5.4.7-4.8.2-5.3-.2L35 6l4.3-.1 4.9-.3 4.2-.3zm-1.4 15l3.1-4.5 2.8-5.3-2-2.7-1 .7-6 .7-7.4.3-5.8-.1 1.6 3.6 5-.5 5.4-.3 5.8-.3-1.9 3.5-2.9 3.7-3.7 3-5 2.4 4.3 1.9 4.1-2.6 3.6-3.5zm37 3.1l-3.9-3-2.8-2.9-2.1-3.2 2.6-4.5L80 5l-2.2-2.6-.8.6-4 .5-5.5.3-4.5.1 1.7 3.5 4.6-.6 6.5-.5-2.4 4.7-3.7 5.3-4.4 4.2L60 24l4 1.5 4.5-3.5 2.7-3 1.7-2 2.1 2.7 2.6 3 2.8 2.6 3.6-1.9zm27.9-7.6l-5.7-2.4-3.1-1.8-3-2.4.2-8.1-3.6-.9.2 7.8v5.8l-.1 6-.6 7.4 3.8-.8-.1-8.1.1-5.1 3 2.1 2.7 1.5 3.3 1.6 2.9-2.6zm34.4 10l-.8-3.2-3.8-.2.3-8.4 2.6-.4.9-2.7-3.7.1.1-6.6L145 4l.9-2.6-5.9.1-5.2-.1 1.2 3.1 2.8-.1.1 6.9-2.9.1-.6 3.1 3.4-.5.1 8.5-5.2.5 1.3 2.9 5.6-.2 5.7.1zm-16.6-9l.4-6 .1-6.3-2.7-1v7.1l-.2 4.9 2.4 1.3zm-.2 9.6l2.3-2.9 1.4-3 .9-3.2.4-6.3-.1-8.9-2.9-1.4.5 7.8-.6 7.9-.7 2.8-1.3 2.6-3.6 3.7 3.7.9zm-2.7-4.4l.6-3.2-3.4 1 .3-6.4 1.7-.4.6-2.5-2.4.2-.1-5.6 2.3-.1.9-2.8-9-.1.5 2.7 2.7.4-.4 5.5-2.7.2.8 2.6 2.1.1v7l-4.1 1 2.2 2.6 3.8-1 3.6-1.2z" fill="#000"/></svg>