<svg width="118" height="29" fill="none" xmlns="http://www.w3.org/2000/svg"><path d="M25.7 27.1l-.1-5.4-.2-5.5-6.2-.5.2-3.7 8.6-.3L26.8 9l-7.4.1.1-4.1 6.1-1.7L22.7.8 19 2l-4.8.7-5.2.5 2.4 2.6 5.1-.6-.2 4-8.3.1 1 2.6 7.2.1.1 3.9-6.2.2-.1 5.1-.3 5.8 3 1.2.3-2 9.5.1.2 1.9 3-1.1zM8.2 4.3L3.6 1.2 2 3.8l3.6 2.8 2.6-2.3zM5 14.4l2-2.8-4.2-1.9-2.5 1.9L5 14.4zm-.7 13l1.7-4 1-2.9-2.2-3-1.7 5.3-2.3 3.7 3.5.9zm18.2-4l-5 .2-4.5-.2.3-4.7 4.1-.2 4.9.1.2 4.8zm33.8 2.9l.7-10.8V6.7l-5.2.5.2-5L49 1l-.1 6.2-3.7-.2.4-1.3-5.7.1.1-1.7 4.7-1.3L42.4 1l-5 1-6.4.4 2 2.3 3.9-.2.1 1.3-5.1.3-1.3 2.3H37l-.2 1.1-5.5.3.3 8.6 5 .2V20h-4.7l-.9 2.4 5.6-.2-.2 2.2-6.3.3 2.1 2.8 5.8-.7 5.3-1 1.1-2.6-5 .7.1-1.8 4.7-.1.6-2.3-5.2.4-.1-1.4 5.1-.1.3-9.1-5.1.1-.1-1.4 5.3.1.5 1.6h3.2l-.5 5.8-1.5 5.8-3.3 5.7 3.4.5 2.8-5.7 1.6-6.7.3-5.3 2.5-.3v7.4l-.5 6.2-.8 1.3-3.6.3 3.6 3.2 3.6-1.8zm-14.5-13h-2.1l.1-1.5 2-.2v1.7zm.1 3.4l-2.4-.1V15h2.4v1.7zM37 13.2l-2.5-.1v-1.6l2.4.2.1 1.5zm-.2 3.3l-2.2.2v-1.8l2.4.1-.2 1.5zm50.5 10.7l1.3-2.5-1.6-4-1.3 3.3-1-2.5-.8-6.2-.3-6.7.4-6.8-6.5.4L70 2l-6.5.2.3 6-.1 7.4L63 22l-2.2 5.8 3.6.2 1.8-6.8.6-9-.2-7.4h6.8l7.4-.1.2 8.5.5 7.2 1.2 5 2.2 2.6 2.4-.8zm-5.3-1l-2-3.4-1-2.9-2 1.2.4 1.6-2.2.7.1-4.2 4.9-.2-.5-8.4-4.2.4V8.8l4.3-1.3-2-1.9-5.2 1-5.3.2 1.9 2.4 3.6-.2v2l-4.8-.3-.3 11 2.6-1 .1-1.2 2.3-.3-.2 4.8-6.3.5 2.1 2.8 5.5-.8 4.2-1.2 1.7 1.7 2.3-.8zm-4.5-9.5l-2.2-.1.1-3.6 2 .1.1 3.6zm-4.6.2l-2.3-.1-.2-3.6 2.3-.2.2 3.9zm43.7-2.9l1.2-2.7-6.5.1h-6l.1-1.2 8.4-.2.3-8.8-6.9.2-6.6-.2-6.6.1.1 8.9h7.9l.2 1.2h-5.5l-6.5-.1 1.5 2.7h5.4l6.7-.2h6.7l6.1.2zm-5.9-9l-6.7.1-6.9-.1.2-1.3 6.5-.1 7 .2-.1 1.2zm.1 3l-7 .4-6.8-.3.2-1.4 6.5.3 7.1-.2V8zm7 17l-3.7-1.3-3.2-1.7-2.5 1.9 2.9 1.8 3.7 1.7 2.8-2.4zm-3.9-4l-.2-5.5-6.7-.5h-6.2l-6.3.3-.2 5.7 8.1.4V25l-.9.6h-2.6l3.3 3.4 3.8-2-.3-5.6 8.2-.4zm-3.4-2.2l-6.5.2h-6.5l.2-1.6 6.1-.4 6.7.4v1.4zm-11.1 4.9L97.2 22 94 23.8 90.6 25l3 2.2 3.4-1.6 2.4-1.9z" fill="#000"/></svg>