<svg width="378" height="46" fill="none" xmlns="http://www.w3.org/2000/svg"><path d="M33.5 20.1l3.5-5.8-3.4-2.3-4.5 6.2 4.4 1.9zM45.8 38l-7.3-3.5-5.7-4.2-4.9-5.3 15.3.2 1.8-5-10.1.6h-9.8l-.1-9.4h8.2l7.3-.4 1.8-4.7-9.1.3H25l.1-4.9L19.9.4l.2 6.1-9.1-.1L3.6 6l1.9 5.1 14.7-.1-.1 9.8-8.8.2-10.1-.5 1.6 4.9 14.7-.3-4.1 4.8-6.2 4.8-7 3.3L6 41l5.5-3.6 5-4.4 3.9-4.7-.2 6.6L20 45l5.1-1.2-.1-7.6v-8l5 5.6 4.7 4 5.5 3.3 5.6-3.1zM16.1 18.2L12 12.5 8 14l3.3 6.1 4.8-1.9zm72 6.7l.3-5.5-4.9-1.2-5.8-.2-5.2.6 1.3 4.7L80 23l4 .7 4.1 1.2zm-1.4 18.7l3.8-5.6-5.9-.3-5.9-1.9-5.6-5-1.7 5.2 3.8 4 5.8 2.3 5.7 1.3zm-26.4-1l1.7-9.3 2.2-10.2 1.7-7.1.8-.2 7.1-1.8.7-5.7-7.2 2.3L69 4l-5.4-2.4-1.9 10-3.7.6-5.7.3 1.8 4.8 6.1-.4h.4l-1.1 4.9-2 8.5-3 10.2 5.8 2.1zm80.3-5.6l1.9-6.9-4.7 2.3-3.5.6-2.7-1.7-.9-5.5v-4.2l1.2-9.9-3.4-3.3-6.5 3.9-5.5 4.4.1-6.2.4-7.5-5.4-2.2.4 11-6 2-6 1 4 4.6 4-1.5 3.8-1.3v1.8l-5.5 8.1-7 7.9 2.5 5.5 5.7-7.9 4-5-.5 7-.4 10.6 5.4-2.3-.3-11.3.3-8.1 6.4-5.2 4.3-3.1-.7 6-.3 4.3.4 4.2.9 4.9 2.4 3 5.6 1.3 5.6-1.3zm24.4-4.2l3.4-7.8 4-9 5.2-10.4-7.2-2-3.2 9-3.5 9.5-3.9 8.9 5.2 1.8zm-3.7 9.9l2.1-6.1-5.4-1.7-2.8 5.4 6.1 2.4zm77.3-34.4L234 3.8l-3 1.6 4.4 5.1 3.2-2.2zm-5.1 2.6l-5.1-4.4-2 .9.7-2.9-8.1.9-8.8.6-8-.4 1.7 5.4 8.1-.1 7.8-.4 6-.8.2-1.1 4.1 4.5 3.4-2.2zm-.5 10.6l1.9-5.8-10.6.9-9.6.4-9.5.5-10.4-.1L197 23l8.4-.6 8.9-.4-.6 5-2 5.5-3.1 4.7-4.9 4.6 6.8 1.8 4-5.2 2.2-4.7 1.9-5.4 1.1-4.1-4-2.4 10-.3h7.3zm48.7-15.2L277 1.7l-3 1.7 4.4 5.2 3.3-2.3zM276.6 9l-5.1-4.5-3 1.5 4.7 5.1 3.4-2.1zm-11.8 3.9l-5.5-4.4-4.9-3.8-2.8 4.3 3.8 3.5L260 16l4.8-3.1zm6.8 18.9l6.4-6.9 3.9-6.3-2.9-6.3-4.8 8.6-8.9 9.1-6.5 4.3-11.1 4 6.5 4 8.4-3.7 9-6.8zm-14.1-10.4l-6.2-3.2-4.8-3.2-2 5 3.9 2.9 4.7 2.6 4.4-4.1zM326.6 36l1.7-5.3-4-.2 1.1-8.7 2-12-10.3.4-9.8.7-12.3.1 2.2 5.3 11.5-.4 11.8-.7-.7 8.5-1.4 7.1-12 .7-12.7-.1 2.1 5.5 11.8-.6 9.1-.1 9.9-.2zm31.3-20.9l-6.9-4.7-5.2-5.1-2.3 6 4.4 3.7 4.6 3.7 5.4-3.6zm9.3 15.3l6.3-7 3.9-6.2-2.8-5.9-4.8 8.3-7.2 7.8-8.2 5.4-11 4.2 6.4 3.9 9.9-4.7 7.5-5.8z" fill="#000"/></svg>