<svg width="285" height="45" fill="none" xmlns="http://www.w3.org/2000/svg"><path d="m74.776 16.336-2.384-3.835h-2.591l.103-.622h4.25l.622-6.013H70.63v-.83h4.976l.207-.725h-5.08l.208-1.659h-2.073l-.208 1.659h-4.976l-.207.726h5.08l-.104.829H64.41l-.622 6.013h4.043l-.104.622h-2.592l-3.213 3.835h2.695l2.28-3.213h.727l-.415 3.524h2.073l.519-3.524h.725l1.866 3.213h2.384Zm-2.384-7.878H70.32l.207-1.866h2.177l-.31 1.866Zm-.207 2.799h-2.177l.207-2.177h2.177l-.207 2.177Zm-3.94-2.8h-2.073l.207-1.865h1.97l-.103 1.866Zm-.414 2.8h-2.074l.311-2.177h2.074l-.311 2.177Zm23.74-5.91.207-.621h-4.976l.207-2.074h-2.384l-.311 2.074h-4.665l-.311.622H91.57Zm-1.037 10.47-2.074-3.731h-2.177l1.763 3.732h2.488Zm-4.976.623.518-4.976h3.525l.622-5.183h-9.538l-.622 5.183h3.732l-.518 4.25h-2.073l.103.726h4.25Zm-4.873-.622 2.8-3.732H81.1l-3.006 3.732h2.591Zm6.842-5.08h-5.183l.415-3.732h5.183l-.415 3.732Zm18.66 4.562.415-3.836-1.037-2.695 2.281-4.976.103-.622h-5.183l-.103.622h-1.452l-.829 1.14h-1.348l.311-2.28H97.48l-.31 2.28h-1.452l-.207.622h1.555l-.208 2.177h-1.866l-.207.622H98.1l-4.043 2.903h1.555l-.518 4.976h5.287l.726-6.428h-2.696l1.659-1.451h1.762l.208-.622h-1.452l2.074-3.421-1.348 12.336h1.866l.104-1.347h2.902Zm-2.177-6.946.518-4.458h1.348l-1.866 4.458Zm-5.287-.622h-.103l.31-2.177h1.141l-1.348 2.177Zm5.805 6.842h-1.14l.622-5.805.933 2.591-.415 3.214ZM99.034 12.5h-1.762l.31-2.074h1.763l-.31 2.074Zm-.415 3.11h-1.658l.31-2.385h1.66l-.311 2.385Zm24.984-9.849.207-.725h-5.079l.311-2.177h-2.488l-.208 2.177h-5.079l-.208.725h12.544ZM121.53 15.3l.933-7.983h-4.147l.104-1.14h-2.177l-.104 1.14H112.2l-.933 8.086h2.073l.829-7.36h1.866l-.933 8.604h2.177l.933-8.604h2.074l-.83 6.53h-1.658l.103.727h3.629Zm16.897 1.14-3.628-8.915h-.933l.415-.726h4.768l.208-.726h-4.873l.415-3.317h-2.281l-.311 3.317h-4.561l-.207.726h4.457l-5.805 9.64h2.695l4.251-7.463 2.799 7.464h2.591Zm14.824-9.641 2.074-3.628h-2.281l-1.866 3.628h2.073Zm-2.28 0-.933-3.628h-2.074l1.037 3.628h1.97Zm-3.318 0-1.555-3.628h-2.177l1.555 3.628h2.177Zm7.153 2.799.311-2.28h-11.714l-.311 2.28h2.384l.104-1.659h7.153l-.207 1.659h2.28Zm-.207 3.94.207-.726h-4.872l.104-.519 3.524-1.658.104-.726h-9.019l-.311.726h6.116l-2.591 1.244-.104.933h-5.183l-.208.725h5.287l-.207 2.074h-3.11l.104.622h5.079l.311-2.696h4.769ZM77.99 28.775l.622-3.317h-1.451l-.622 3.317h1.451Zm-2.073 0 .622-3.317h-.83l-.622 3.317h.83Zm-1.452 0 .415-2.28h-8.5l-.726 2.28h8.811Zm3.94 3.94.207-.83H63.373l-.31.83H69.8l-.31 2.28-3.836 6.116h3.42l3.11-5.805.415-2.592h5.806Zm18.452-4.666.415-3.11h-1.348l-.414 3.007h1.347v.103Zm-2.073 0 .415-3.006h-.726l-.518 3.006h.829Zm-3.94 3.007.208-.933h-1.555l-2.384-3.628h-3.214l3.006 4.56h3.94Zm-1.243 4.457.207-.829h-1.555l-2.384-3.732h-3.11l3.006 4.561h3.836Zm1.347 5.287 3.629-5.08 2.073-6.945h-2.8l-1.969 6.427-3.524 4.769h-3.732l-.311.83h6.634Zm16.379.208 5.702-8.086 1.451-5.39h-7.153l1.141-2.074h-2.799l-5.08 9.019h2.903l3.317-6.117h4.665l-1.14 3.94-4.873-.415-.414.83 4.665.414-5.702 7.879h3.317Zm13.062.103 3.214-12.232h1.14l.208-.83h-3.836l-3.628 13.062h2.902Zm9.641-.31 3.525-7.05h-2.799l-3.006 6.22h-.933l2.073-13.684h-2.592l-2.28 14.513h6.012Zm16.483-1.037h-9.641l-.207.829h12.44l1.451-12.44h-12.647l-.207.933h10.055l-1.244 10.678ZM164.24 40.8l3.628-5.08 2.488-8.189h-2.902l-2.281 7.671-3.525 4.769h-3.732l-.311.83h6.635Zm-1.659-7.36.622-2.903-6.116-3.42-.622 2.798 6.116 3.525Zm24.984-4.665.829-2.28h-10.885l-.725 2.28h10.781Zm1.969 3.94.208-.83h-15.239l-.311.83h6.738l-.415 2.28-3.731 6.116h3.42l3.11-5.805.415-2.592h5.805Zm12.337 8.085 3.628-5.08 2.488-8.189h-2.903l-2.28 7.671-3.525 4.769h-3.836l-.207.83h6.635Zm-1.763-7.36.622-2.903-6.012-3.42-.726 2.798 6.116 3.525Zm17.209 0 .207-.83h-1.037l-1.244-5.493h-2.695L214 33.44h3.317Zm3.732 0-1.452-6.324h-2.591l1.451 6.324h2.592Zm-.933 7.671 7.464-13.995h-5.495l-.311.933h2.281l-7.049 13.062h3.11Zm23.636.208.933-8.397h1.555l.207-.83h-1.659l.726-5.805h1.037l.207-.83h-7.775l-.311.83h1.14l-.725 5.805h-1.141l-.207.83h1.244l-.415 3.317-1.969 5.08h2.695l1.451-4.976.415-3.421h1.244l-.933 8.397h2.281Zm-7.153-.622 1.14-10.574h-3.214l1.866-3.94h2.074l.207-.829h-6.531l-.207.83h2.177l-3.318 6.22h1.244l-.933 8.293h5.495Zm5.909-8.605h-1.141l.726-5.805h1.037l-.622 5.805Zm-7.983 7.879h-1.036l1.036-9.123h1.037l-1.037 9.123Zm30.063-7.671.311-.726h-4.146l.622-3.525h-2.488l-.726 4.25h6.427Zm.311-1.97.415-3.628h-5.598l.311-2.073h-2.903l-.207 2.073h-5.391l-.518 3.628h2.592l.311-2.902h8.708l-.311 2.902h2.591Zm-10.055 2.28 3.317-4.56h-2.488l-3.939 4.56h3.11Zm9.744 8.398.415-.83H262.1l1.037-6.116h-4.769l.933-1.348h-2.695l-1.14 1.348h-4.147l-.311.83h3.836l-5.287 6.323h3.213l4.873-6.324h2.695l-1.14 6.117h5.39Zm20.008-9.33-4.665-6.116h-1.762l.829-.933h-3.006l-6.635 7.049h3.421l4.872-5.39 3.732 5.39h3.214Zm-2.073 1.347.311-.829h-11.611l-.311.83h11.611Zm-.208 7.879-1.555-4.147h-2.695l1.244 3.318h-6.013l3.11-4.873h7.257l.207-.933h-14.202l-.311.933h4.043l-3.525 5.702h12.44Z" fill="#000"/><path d="M27.55 5.23 32.544.26a.889.889 0 0 1 1.257 0l4.97 4.995a.89.89 0 0 1 0 1.257l-4.993 4.97a.89.89 0 0 1-1.258 0l-4.97-4.994a.889.889 0 0 1 0-1.257ZM20.442 11.61l4.994-4.97a.889.889 0 0 1 1.258 0l4.97 4.994a.89.89 0 0 1 0 1.257l-4.994 4.97a.89.89 0 0 1-1.258 0l-4.97-4.994a.89.89 0 0 1 0-1.257Z" fill="#05C0FF"/><path d="m27.55 18.604 4.994-4.965a.89.89 0 0 1 1.257 0l4.97 4.99a.888.888 0 0 1 0 1.256l-4.993 4.977a.89.89 0 0 1-1.258 0l-4.97-4.99a.902.902 0 0 1 0-1.268Z" fill="#0070D9"/><path d="m13.761 18.61 4.991-4.97a.888.888 0 0 1 1.257 0l4.966 4.994a.89.89 0 0 1 0 1.257l-4.99 4.97a.888.888 0 0 1-1.257 0l-4.967-4.994a.869.869 0 0 1 0-1.257ZM6.949 25.116l4.992-4.969a.889.889 0 0 1 1.257 0l4.968 4.993a.889.889 0 0 1 0 1.257l-4.992 4.968a.889.889 0 0 1-1.257 0l-4.968-4.992a.878.878 0 0 1 0-1.257ZM6.944 11.61l4.994-4.97a.89.89 0 0 1 1.258 0l4.97 4.994a.889.889 0 0 1 0 1.257l-4.994 4.97a.89.89 0 0 1-1.258 0l-4.97-4.994a.889.889 0 0 1 0-1.257Z" fill="#05C0FF"/><path d="m20.442 38.489 4.994-4.97a.89.89 0 0 1 1.258 0l4.97 4.994a.89.89 0 0 1 0 1.257l-4.994 4.97a.89.89 0 0 1-1.258 0l-4.97-4.994a.89.89 0 0 1 0-1.257ZM40.927 18.608l4.992-4.969a.889.889 0 0 1 1.258 0l4.968 4.993a.889.889 0 0 1 0 1.257l-4.992 4.968a.889.889 0 0 1-1.258 0l-4.968-4.992a.878.878 0 0 1 0-1.257ZM20.442 25.118l4.994-4.97a.89.89 0 0 1 1.258 0l4.97 4.994a.89.89 0 0 1 0 1.257l-4.994 4.97a.89.89 0 0 1-1.258 0l-4.97-4.994a.89.89 0 0 1 0-1.257Z" fill="#0070D9"/><path d="m.27 18.61 4.99-4.97a.888.888 0 0 1 1.256 0l4.967 4.994a.89.89 0 0 1 0 1.257l-4.99 4.97a.888.888 0 0 1-1.257 0L.269 19.868a.869.869 0 0 1 0-1.257Z" fill="#05C0FF"/></svg>