<svg width="282" height="45" fill="none" xmlns="http://www.w3.org/2000/svg"><path d="m73.593 17.61-2.357-3.792h-2.562l.102-.615h4.202l.615-5.944h-4.1v-.82h4.92l.205-.717h-5.022l.205-1.64h-2.05l-.205 1.64h-4.919l-.205.717h5.022l-.103.82h-3.996l-.615 5.944h3.997l-.103.615h-2.562l-3.177 3.792h2.664l2.255-3.177h.718l-.41 3.485h2.05l.512-3.485h.717l1.845 3.177h2.357Zm-2.357-7.789h-2.05l.205-1.844h2.152l-.307 1.844Zm-.205 2.768h-2.152l.205-2.153h2.152l-.205 2.152ZM67.136 9.82h-2.05l.206-1.844h1.947l-.103 1.844Zm-.41 2.768h-2.05l.308-2.153h2.05l-.307 2.152Zm23.47-5.842.205-.615h-4.92l.206-2.05h-2.358l-.307 2.05H78.41l-.307.615h12.093Zm-1.025 10.35-2.05-3.689H84.97l1.743 3.69h2.46Zm-4.92.616.513-4.92h3.485l.615-5.124h-9.429l-.615 5.125h3.69l-.513 4.201h-2.05l.103.718h4.202Zm-4.816-.615 2.767-3.69h-2.357l-2.972 3.69h2.562Zm6.764-5.022h-5.124l.41-3.69h5.124l-.41 3.69Zm18.448 4.51.41-3.792-1.025-2.665 2.255-4.92.102-.615h-5.124l-.103.615h-1.434l-.82 1.128h-1.333l.308-2.255h-1.845l-.307 2.255h-1.435l-.205.615h1.537l-.205 2.152h-1.845l-.205.615h3.28l-3.997 2.87h1.537l-.512 4.919h5.227l.717-6.354H96.96l1.64-1.435h1.742l.205-.615h-1.434l2.049-3.382-1.332 12.196h1.845l.102-1.332h2.87Zm-2.152-6.867.512-4.407h1.332l-1.844 4.407Zm-5.227-.615h-.103l.308-2.152H98.6l-1.332 2.152Zm5.739 6.764h-1.127l.615-5.74.922 2.563-.41 3.177Zm-5.432-2.05h-1.742l.308-2.05h1.742l-.308 2.05Zm-.41 3.075h-1.64l.308-2.357h1.64l-.308 2.357Zm24.7-9.736.205-.718h-5.022l.307-2.152h-2.459l-.205 2.152h-5.022l-.205.718h12.401Zm-2.05 9.428.922-7.891h-4.099l.102-1.127h-2.152l-.102 1.127h-3.895l-.922 7.994h2.05l.819-7.277h1.845l-.922 8.507h2.152l.922-8.507h2.05l-.82 6.457h-1.639l.102.717h3.587Zm16.706 1.128-3.588-8.814h-.922l.41-.717h4.714l.205-.718h-4.816l.409-3.28h-2.254l-.308 3.28h-4.509l-.205.718h4.407l-5.739 9.53h2.664l4.202-7.378 2.767 7.379h2.563Zm14.655-9.531 2.05-3.588h-2.255l-1.844 3.588h2.049Zm-2.254 0-.923-3.588h-2.05l1.025 3.588h1.948Zm-3.28 0-1.537-3.588h-2.153l1.538 3.588h2.152Zm7.072 2.767.307-2.255H141.44l-.308 2.255h2.358l.102-1.64h7.072l-.205 1.64h2.255Zm-.205 3.894.205-.717h-4.817l.102-.513 3.485-1.64.102-.717h-8.916l-.308.718h6.047l-2.562 1.23-.103.922h-5.124l-.205.717h5.227l-.205 2.05h-3.075l.103.615h5.022l.307-2.665h4.715ZM76.77 29.91l.615-3.28H75.95l-.615 3.28h1.435Zm-2.05 0 .615-3.28h-.82l-.614 3.28h.82Zm-1.434 0 .41-2.255h-8.404l-.718 2.255h8.712Zm3.894 3.894.205-.82H62.32l-.308.82h6.662l-.308 2.255-3.792 6.047h3.382l3.075-5.74.41-2.562h5.74Zm18.243-4.611.41-3.075h-1.332l-.41 2.972h1.332v.103Zm-2.05 0 .41-2.973h-.717l-.513 2.973h.82Zm-3.894 2.972.205-.923h-1.538l-2.357-3.587h-3.177l2.972 4.51h3.895Zm-1.23 4.407.205-.82h-1.537l-2.358-3.69h-3.074l2.972 4.51h3.792Zm1.332 5.226 3.587-5.021 2.05-6.867h-2.767l-1.947 6.354-3.485 4.715h-3.69l-.307.82h6.56Zm16.193.205 5.637-7.994 1.435-5.329h-7.072l1.128-2.05h-2.768l-5.021 8.917h2.869l3.28-6.047h4.612l-1.128 3.895-4.816-.41-.41.82 4.612.41-5.637 7.788h3.279Zm12.914.103 3.177-12.094h1.127l.205-.82h-3.792l-3.587 12.914h2.87Zm9.531-.308 3.485-6.969h-2.768l-2.972 6.15h-.922l2.05-13.529h-2.562l-2.255 14.348h5.944Zm16.296-1.024h-9.532l-.205.82h12.299l1.435-12.299h-12.504l-.205.922h9.941l-1.229 10.557Zm17.525 1.024 3.587-5.021 2.46-8.097h-2.87l-2.255 7.584-3.484 4.715h-3.69l-.307.82h6.559Zm-1.64-7.276.615-2.87-6.047-3.382-.615 2.767 6.047 3.485Zm24.7-4.612.82-2.255h-10.762l-.717 2.255H185.1Zm1.947 3.894.205-.82h-15.066l-.307.82h6.661l-.41 2.255-3.689 6.047h3.382l3.075-5.74.41-2.562h5.739Zm12.196 7.994 3.587-5.021 2.46-8.097h-2.87l-2.255 7.584-3.484 4.715h-3.792l-.205.82h6.559Zm-1.742-7.276.615-2.87-5.945-3.382-.717 2.767 6.047 3.485Zm17.013 0 .205-.82h-1.025l-1.23-5.432h-2.665l1.435 6.252h3.28Zm3.689 0-1.435-6.252h-2.562l1.435 6.252h2.562Zm-.922 7.584 7.379-13.836h-5.432l-.307.923h2.254l-6.969 12.913h3.075Zm23.367.205.922-8.302h1.538l.205-.82h-1.64l.717-5.739h1.025l.205-.82h-7.687l-.307.82h1.127l-.717 5.74h-1.127l-.205.82h1.229l-.409 3.279-1.948 5.022h2.665l1.435-4.92.41-3.382h1.23l-.923 8.302h2.255Zm-7.072-.615 1.128-10.454h-3.177l1.844-3.894h2.05l.205-.82h-6.457l-.205.82h2.153l-3.28 6.149h1.23l-.923 8.199h5.432Zm5.842-8.507h-1.127l.717-5.739h1.025l-.615 5.74Zm-7.891 7.79h-1.025l1.025-9.02h1.024l-1.024 9.02Zm29.721-7.584.307-.718h-4.099l.615-3.485h-2.46l-.717 4.203h6.354Zm.307-1.948.41-3.587h-5.534l.307-2.05h-2.869l-.205 2.05h-5.33l-.512 3.587h2.562l.308-2.87h8.609l-.308 2.87h2.562Zm-9.941 2.255 3.28-4.51h-2.46l-3.895 4.51h3.075Zm9.634 8.301.41-.82h-2.87l1.025-6.046h-4.714l.922-1.333h-2.665l-1.127 1.333h-4.1l-.307.82h3.792l-5.227 6.251h3.177l4.817-6.251h2.665l-1.127 6.046h5.329Zm19.78-9.224-4.612-6.046h-1.742l.82-.923h-2.972l-6.56 6.97h3.382l4.817-5.33 3.69 5.33h3.177Zm-2.05 1.333.308-.82h-11.479l-.307.82h11.478Zm-.205 7.789-1.537-4.1h-2.665l1.23 3.28h-5.944l3.074-4.817h7.175l.205-.922H266.27l-.308.922h3.997l-3.484 5.637h12.298Z" fill="#000"/><path d="M27.006 5.171 31.943.258a.88.88 0 0 1 1.243 0L38.1 5.195c.344.343.344.9 0 1.243l-4.937 4.914a.879.879 0 0 1-1.243 0l-4.914-4.937a.879.879 0 0 1 0-1.244ZM20.316 11.847l4.938-4.914a.88.88 0 0 1 1.243 0l4.914 4.938c.343.343.343.9 0 1.243l-4.938 4.914a.879.879 0 0 1-1.243 0l-4.914-4.937a.879.879 0 0 1 0-1.244Z" fill="#05C0FF"/><path d="m26.98 18.53 4.938-4.91a.88.88 0 0 1 1.243 0l4.914 4.933a.877.877 0 0 1 0 1.242l-4.938 4.92a.88.88 0 0 1-1.243 0l-4.914-4.932a.892.892 0 0 1 0-1.254Z" fill="#0070D9"/><path d="m13.63 18.507 4.933-4.914a.878.878 0 0 1 1.243 0l4.91 4.938a.88.88 0 0 1 0 1.243l-4.934 4.914a.878.878 0 0 1-1.242 0l-4.91-4.937a.859.859 0 0 1 0-1.244ZM6.93 25.17l4.936-4.913a.879.879 0 0 1 1.242 0l4.912 4.936c.344.343.344.9 0 1.243l-4.935 4.912a.879.879 0 0 1-1.243 0L6.93 26.412a.868.868 0 0 1 0-1.243ZM6.953 11.808l4.937-4.914a.88.88 0 0 1 1.244 0l4.914 4.938a.88.88 0 0 1 0 1.243L13.11 17.99a.88.88 0 0 1-1.243 0l-4.914-4.938a.88.88 0 0 1 0-1.243Z" fill="#05C0FF"/><path d="m20.258 38.562 4.937-4.914a.879.879 0 0 1 1.243 0l4.914 4.938c.344.343.344.9 0 1.243l-4.937 4.914a.879.879 0 0 1-1.244 0l-4.913-4.938a.88.88 0 0 1 0-1.243ZM40.346 18.56l4.936-4.912a.879.879 0 0 1 1.242 0l4.912 4.936c.344.343.344.9 0 1.242l-4.935 4.912a.879.879 0 0 1-1.243 0l-4.912-4.935a.868.868 0 0 1 0-1.243ZM20.281 25.199l4.938-4.914a.879.879 0 0 1 1.243 0l4.914 4.937c.343.344.343.9 0 1.244l-4.938 4.914a.879.879 0 0 1-1.243 0l-4.914-4.938a.879.879 0 0 1 0-1.243Z" fill="#0070D9"/><path d="M.266 18.507 5.2 13.593a.878.878 0 0 1 1.242 0l4.91 4.938a.88.88 0 0 1 0 1.243L6.42 24.688a.878.878 0 0 1-1.243 0l-4.91-4.937a.859.859 0 0 1 0-1.244Z" fill="#05C0FF"/></svg>