<svg width="275" height="45" fill="none" xmlns="http://www.w3.org/2000/svg"><path d="M72.3 17.7L70 14h-2.5l.1-.6h4.1l.6-5.8h-4v-.8h4.8l.2-.7h-4.9l.2-1.6h-2l-.2 1.6h-4.8l-.2.7h4.9l-.1.8h-3.9l-.6 5.8h3.9l-.1.6H63l-3.1 3.7h2.6l2.2-3.1h.7L65 18h2l.5-3.4h.7l1.8 3.1h2.3zM70 10.1h-2l.2-1.8h2.1l-.3 1.8zm-.2 2.7h-2.1l.2-2.1H70l-.2 2.1zM66 10.1h-2l.2-1.8h1.9l-.1 1.8zm-.4 2.7h-2l.3-2.1h2l-.3 2.1zM88.5 7.1l.2-.6h-4.8l.2-2h-2.3l-.3 2H77l-.3.6h11.8zm-1 10.1l-2-3.6h-2.1l1.7 3.6h2.4zm-4.8.6l.5-4.8h3.4l.6-5H78l-.6 5H81l-.5 4.1h-2l.1.7h4.1zm-4.7-.6l2.7-3.6h-2.3l-2.9 3.6H78zm6.6-4.9h-5l.4-3.6h5l-.4 3.6zM102.6 16.7l.4-3.7-1-2.6 2.2-4.8.1-.6h-5l-.1.6h-1.4L97 6.7h-1.3l.3-2.2h-1.8l-.3 2.2h-1.4l-.2.6h1.5l-.2 2.1h-1.8l-.2.6h3.2l-3.9 2.8h1.5l-.5 4.8H97l.7-6.2h-2.6l1.6-1.4h1.7l.2-.6h-1.4l2-3.3L97.9 18h1.8l.1-1.3h2.8zm-2.1-6.7l.5-4.3h1.3l-1.8 4.3zm-5.1-.6h-.1l.3-2.1h1.1l-1.3 2.1zM101 16h-1.1l.6-5.6.9 2.5-.4 3.1zm-5.3-2H94l.3-2H96l-.3 2zm-.4 3h-1.6l.3-2.3h1.6l-.3 2.3zM119.4 7.5l.2-.7h-4.9l.3-2.1h-2.4l-.2 2.1h-4.9l-.2.7h12.1zm-2 9.2l.9-7.7h-4l.1-1.1h-2.1l-.1 1.1h-3.8l-.9 7.8h2l.8-7.1h1.8l-.9 8.3h2.1l.9-8.3h2l-.8 6.3h-1.6l.1.7h3.5zM133.7 17.8l-3.5-8.6h-.9l.4-.7h4.6l.2-.7h-4.7l.4-3.2H128l-.3 3.2h-4.4l-.2.7h4.3l-5.6 9.3h2.6l4.1-7.2 2.7 7.2h2.5zM148 8.5l2-3.5h-2.2L146 8.5h2zm-2.2 0l-.9-3.5h-2l1 3.5h1.9zm-3.2 0L141.1 5H139l1.5 3.5h2.1zm6.9 2.7l.3-2.2h-11.3l-.3 2.2h2.3l.1-1.6h6.9l-.2 1.6h2.2zm-.2 3.8l.2-.7h-4.7l.1-.5 3.4-1.6.1-.7h-8.7l-.3.7h5.9l-2.5 1.2-.1.9h-5l-.2.7h5.1l-.2 2h-3l.1.6h4.9l.3-2.6h4.6zM75.4 29.7l.6-3.2h-1.4l-.6 3.2h1.4zm-2 0l.6-3.2h-.8l-.6 3.2h.8zm-1.4 0l.4-2.2h-8.2l-.7 2.2H72zm3.8 3.8l.2-.8H61.3l-.3.8h6.5l-.3 2.2-3.7 5.9h3.3l3-5.6.4-2.5h5.6zM93.6 29L94 26h-1.3l-.4 2.9h1.3zm-2 0l.4-2.9h-.7l-.5 2.9h.8zm-3.8 2.9l.2-.9h-1.5l-2.3-3.5h-3.1l2.9 4.4h3.8zm-1.2 4.3l.2-.8h-1.5L83 31.8h-3l2.9 4.4h3.7zm1.3 5.1l3.5-4.9 2-6.7h-2.7l-1.9 6.2-3.4 4.6h-3.6l-.3.8h6.4zM103.7 41.5l5.5-7.8 1.4-5.2h-6.9l1.1-2h-2.7l-4.9 8.7h2.8l3.2-5.9h4.5l-1.1 3.8-4.7-.4-.4.8 4.5.4-5.5 7.6h3.2zM116.3 41.6l3.1-11.8h1.1l.2-.8H117l-3.5 12.6h2.8zm9.3-.3l3.4-6.8h-2.7l-2.9 6h-.9l2-13.2H122l-2.2 14h5.8zM141.5 40.3h-9.3l-.2.8h12l1.4-12h-12.2l-.2.9h9.7l-1.2 10.3zM158.6 41.3l3.5-4.9 2.4-7.9h-2.8l-2.2 7.4-3.4 4.6h-3.6l-.3.8h6.4zm-1.6-7.1l.6-2.8-5.9-3.3-.6 2.7 5.9 3.4zM181.1 29.7l.8-2.2h-10.5l-.7 2.2h10.4zm1.9 3.8l.2-.8h-14.7l-.3.8h6.5l-.4 2.2-3.6 5.9h3.3l3-5.6.4-2.5h5.6zM194.9 41.3l3.5-4.9 2.4-7.9H198l-2.2 7.4-3.4 4.6h-3.7l-.2.8h6.4zm-1.7-7.1l.6-2.8-5.8-3.3-.7 2.7 5.9 3.4zM209.8 34.2l.2-.8h-1l-1.2-5.3h-2.6l1.4 6.1h3.2zm3.6 0l-1.4-6.1h-2.5l1.4 6.1h2.5zm-.9 7.4l7.2-13.5h-5.3l-.3.9h2.2l-6.8 12.6h3zM235.3 41.8l.9-8.1h1.5l.2-.8h-1.6l.7-5.6h1l.2-.8h-7.5l-.3.8h1.1l-.7 5.6h-1.1l-.2.8h1.2l-.4 3.2-1.9 4.9h2.6l1.4-4.8.4-3.3h1.2l-.9 8.1h2.2zm-6.9-.6l1.1-10.2h-3.1l1.8-3.8h2l.2-.8h-6.3l-.2.8h2.1l-3.2 6h1.2l-.9 8h5.3zm5.7-8.3H233l.7-5.6h1l-.6 5.6zm-7.7 7.6h-1l1-8.8h1l-1 8.8zM255.4 33.1l.3-.7h-4l.6-3.4h-2.4l-.7 4.1h6.2zm.3-1.9l.4-3.5h-5.4l.3-2h-2.8l-.2 2h-5.2l-.5 3.5h2.5l.3-2.8h8.4l-.3 2.8h2.5zm-9.7 2.2l3.2-4.4h-2.4l-3.8 4.4h3zm9.4 8.1l.4-.8H253l1-5.9h-4.6l.9-1.3h-2.6l-1.1 1.3h-4l-.3.8h3.7l-5.1 6.1h3.1l4.7-6.1h2.6l-1.1 5.9h5.2zM274.7 32.5l-4.5-5.9h-1.7l.8-.9h-2.9l-6.4 6.8h3.3l4.7-5.2 3.6 5.2h3.1zm-2 1.3l.3-.8h-11.2l-.3.8h11.2zm-.2 7.6l-1.5-4h-2.6l1.2 3.2h-5.8l3-4.7h7l.2-.9h-13.7l-.3.9h3.9l-3.4 5.5h12z" fill="#000"/><path d="M37.8 5.6L33 .8c-.4-.4-1.2-.4-1.7 0l-4.7 4.8c-.5.4-.5 1.2 0 1.7l4.7 4.7c.5.5 1.2.5 1.7 0l4.8-4.7c.4-.5.4-1.3 0-1.7zM31.3 12l-4.7-4.7c-.5-.5-1.2-.5-1.7 0L20.2 12c-.5.5-.5 1.2 0 1.7l4.7 4.7c.4.5 1.2.5 1.7 0l4.7-4.7c.5-.5.5-1.2 0-1.7z" fill="#05C0FF" stroke="#fff" stroke-width=".331"/><path d="M37.7 18.5L33 13.7c-.4-.5-1.2-.5-1.7 0l-4.7 4.7c-.5.5-.5 1.3 0 1.7l4.7 4.8c.5.4 1.2.4 1.7 0l4.7-4.7c.5-.5.5-1.2 0-1.7z" fill="#0070D9" stroke="#fff" stroke-width=".331"/><path d="M24.9 18.4l-4.7-4.7c-.5-.5-1.2-.5-1.7 0l-4.8 4.7c-.5.5-.5 1.2 0 1.7l4.7 4.7c.5.5 1.3.5 1.7.1l4.8-4.8c.4-.4.4-1.2 0-1.7z" fill="#05C0FF" stroke="#fff" stroke-width=".331"/><path d="M18.4 24.9L13.7 20c-.5-.5-1.2-.5-1.7 0l-4.7 4.7c-.5.5-.5 1.2 0 1.7l4.7 4.8c.5.4 1.2.4 1.7 0l4.7-4.8c.5-.5.5-1.2 0-1.6zM18.5 12l-4.8-4.8c-.4-.4-1.2-.4-1.7 0L7.3 12c-.5.4-.5 1.2 0 1.7l4.7 4.7c.5.5 1.2.5 1.7 0l4.8-4.7c.5-.5.5-1.2 0-1.7z" fill="#05C0FF" stroke="#fff" stroke-width=".331"/><path d="M12 18.4l-4.7-4.7c-.5-.5-1.3-.5-1.7 0L.8 18.4c-.4.4-.4 1.2 0 1.6l4.8 4.8c.4.5 1.2.5 1.7 0l4.7-4.7c.5-.5.5-1.2 0-1.7z" fill="#05C0FF" stroke="#fff" stroke-width=".331"/><path d="M31.3 37.7L26.5 33c-.5-.5-1.2-.5-1.7 0l-4.7 4.7c-.5.5-.5 1.3 0 1.7l4.7 4.7c.5.5 1.2.5 1.7.1l4.8-4.8c.4-.4.4-1.2 0-1.7zM50.6 18.5l-4.7-4.8c-.5-.4-1.2-.4-1.7 0l-4.8 4.8c-.4.5-.4 1.2 0 1.7l4.8 4.7c.4.5 1.2.5 1.7.1l4.7-4.8c.4-.5.4-1.2 0-1.7zM31.3 24.9L26.6 20c-.5-.4-1.3-.4-1.7 0l-4.8 4.7c-.4.5-.4 1.2 0 1.7l4.8 4.8c.4.5 1.1.5 1.6 0l4.8-4.7c.5-.5.5-1.3 0-1.7z" fill="#0070D9" stroke="#fff" stroke-width=".331"/></svg>