<svg width="387" height="24" fill="none" xmlns="http://www.w3.org/2000/svg"><path d="m21.65 5.28 1.104-2.208-5.232-.12-4.704.216-4.464-.192.48-1.344L6.698.312l-1.08 2.4-2.136 2.736L.794 7.92l2.736.816 3.216-3.312 5.064-.096 4.992.072 4.848-.12ZM18.482 22.2l.888-2.976 2.16-.36.84-1.824-2.784-.36.024-2.616 3.048-.408.888-2.112-3.696.12.048-4.632-4.752-.264-4.992.288-4.584-.36-.408 5.016-3-.096-1.296 2.4 3.816-.096-.432 3-.504 2.88 2.16.888.696-1.632 4.752.144 5.424-.048-.336 1.056-.528.36h-2.952l2.472 2.592 3.048-.96Zm-.96-10.344-3.96-.288.432-2.712 3.456-.048.072 3.048Zm-.432 4.968-4.296.264.672-3.24 3.816-.024-.192 3Zm-5.856-5.256-3.864.336.504-2.832 3.72-.096-.36 2.592Zm-.696 5.424-3.84-.192.552-3.096 3.816-.024-.528 3.312Zm31.752-6.336.552-1.752-2.856-.024-.024-1.512 1.944-.048.672-1.8-2.616.12V4.032l-2.064.552.024 1.152-2.688-.096.48 1.608 2.184.288L37.778 9l-3.048-.216.792 2.04 6.768-.168ZM29.738 6.432l1.176-2.544-2.784-1.824-1.704 1.68 3.312 2.688Zm16.656 15.624.984-2.52-5.616.408h-4.464l-3.864-.264-1.896-1.056 1.68.216.792-2.712.528-4.44V8.616l.096-4.68 4.272-.216 4.272.168.096 6.336-.168 6.048-.288.456-.672.024-.096-5.04-3.168.12-3.36-.072-.24 6.432 1.824.648.192-1.248 3.696-.216 2.088 2.016 2.52-1.296-.168-5.88-.048-5.016.192-5.712-6.72.336-6.72-.168.288 4.128v4.44l-.384 4.56-1.104 3.528-.624-.36.072-7.848-4.632.192-.624 1.944 2.928.288.096 6.072-3.576 1.968 1.872 2.016 3.24-2.4 2.28 1.344 3.384.6 5.448.024 5.592-.096Zm-6.168-6.312-2.904-.048.12-2.064 2.688-.216.096 2.328Zm31.872 1.68L68.114 15l-3.36-3.192L61.61 8.04l7.704-.048 1.104-2.52-4.56.144-4.392-.024-.168-3.984-2.4-.672-.144 4.632-4.2.144-4.128-.12.84 2.352 7.152.168-2.544 3.696L52.634 15l-4.176 2.808 2.736 1.344 3.504-2.712 1.944-2.112 2.28-2.928-.048 6.024-.216 5.52 2.712-.624-.168-5.928.096-5.28 2.784 3.552 2.76 2.52 2.616 1.968 2.64-1.728Zm22.296 4.344.96-1.92-5.928.096-.048-1.368 3.552.048.744-1.68-4.224.216-.024-1.104 3.768-.096.768-1.512-4.56.072.024-1.248 4.296.024.912-2.064-5.016.216.792-1.416-1.008-.624 2.568.192 2.736-.384-.432-7.704-6.384-.192.792 2.088 3.648-.072v1.392l-4.176-.168.624 1.8 3.552-.168-.12 1.296-3.96.072-.696 1.728.816.048-.744 2.088-2.88-.072.576-1.392-.72-.672h.192l2.376.144.168-7.992-6.432-.216.744 2.256 3.648-.144-.192 1.344-3.84-.096.768 1.656 3.024.192.144 1.08-3.672-.072-.744 1.896 2.616-.024-1.488 2.88-1.704 2.136.048-5.64.12-6.72-6.144.096-.168 5.448.048 6.408-.312 6.312 2.28-.624.408-1.104 1.344.096 2.352-.168.024-2.688 1.008.384.6-.6-.408 6.768 2.232.744.36-1.056 5.112.192 5.28-.408Zm-6.96-7.032-3.456-.264v-1.176l3.336-.12.12 1.56Zm-9.216-6.072-1.8-.072-.12-4.296 1.824-.144.096 4.512Zm9.072 8.328-3.48.312.144-1.224 3.384-.048-.048.96Zm-.192 2.976-3.168.144v-1.344l3.456-.312-.288 1.512Zm-9.024-3.72-1.752.072.096-5.472 1.848.12-.192 5.28Zm38.184 5.952-.24-6.744-.048-6.384-.048-6.48-8.448-.312-6.744.288-.024 6.528-.096 6.504-.456 6.624 2.664-.552.168-1.152 4.536-.216 5.76.312.24 1.056 2.736.528Zm-2.904-12.288-5.808.288-4.344-.192.216-4.992 3.912-.264 5.928.168.096 4.992Zm.072 8.016-5.736.096-4.632-.096.24-5.52 4.944-.048 5.16-.048.024 5.616Zm20.496 3.312.984-2.76-5.184.288-3.864-.048 2.784-2.472 3.048-3.48 1.704-2.904.528-2.736-.768-2.616-1.704-1.752-3.168-.6-2.712.456-1.992 1.056-1.704 2.112 1.584 2.328 1.944-2.544 2.376-.888 2.4.528.888 1.968-.36 1.92-1.92 3.144-2.64 2.88-3.528 3.336-.24 2.784 5.832-.168 5.712.168Zm13.869-.432 2.064-2.256.552-3.12.24-3.624-.144-3.576-.504-3.024-2.016-2.256-3.264-.816-3.648.816-2.064 2.256-.552 3.024-.24 3.624.144 3.576.504 3.12 2.016 2.256 3.648.792 3.264-.792Zm-1.32-2.376-2.184.768-2.016-.768-1.104-2.568-.192-4.008.288-4.056 1.152-2.472 2.016-.792 2.184.792 1.08 2.472.192 4.104-.288 3.96-1.128 2.568Zm11.109-7.656-.24-3.528-3.12.288-.192 3.072 3.552.168Zm0 10.8-.24-3.528-3.12.288-.192 3.048 3.552.192Zm12.969-.768 2.064-2.256.552-3.12.24-3.624-.144-3.576-.504-3.024-2.016-2.256-3.264-.816-3.648.816-2.064 2.256-.552 3.024-.24 3.624.144 3.576.504 3.12 2.016 2.256 3.648.792 3.264-.792Zm-1.32-2.376-2.184.768-2.016-.768-1.104-2.568-.192-4.008.288-4.056 1.152-2.472 2.016-.792 2.184.792 1.08 2.472.192 4.104-.288 3.96-1.128 2.568Zm17.445 2.376 2.064-2.256.552-3.12.24-3.624-.144-3.576-.504-3.024-2.016-2.256-3.264-.816-3.648.816-2.064 2.256-.552 3.024-.24 3.624.144 3.576.504 3.12 2.016 2.256 3.648.792 3.264-.792Zm-1.32-2.376-2.184.768-2.016-.768-1.104-2.568-.192-4.008.288-4.056 1.152-2.472 2.016-.792 2.184.792 1.08 2.472.192 4.104-.288 3.96-1.128 2.568Zm27.405-6.192.24-3.096-2.616 1.704-3.024.84-2.568-.432-2.256-1.296-3.12-1.032-3.744.576-1.704 1.224-.24 2.88 2.664-1.464 2.64-.576 2.52.792 2.424 1.416 2.76.6 4.512-1.032 1.512-1.104Zm24.218 6.456 1.56-3.264.24-3.768-.312-4.08-.936-2.328-2.784-2.112-4.08-.744-5.928.168.144 5.832-.168 6.312-.12 6.456 6.336.12 3.936-.792 2.112-1.8Zm-3-.936-2.568 1.008-3.96-.024-.096-4.704.168-5.616.24-3.456 3.576.072 2.856.888 1.464 2.208.48 3.48-.408 3.744-1.752 2.4Zm11.259-12.24-.192-3.192-2.856.264-.168 2.784 3.216.144Zm-.144 15.648-.24-6.624.168-7.128-2.856.432.168 6.336-.24 7.488 3-.504Zm13.497-1.392.528-1.968-.6-2.352-1.8-1.416-2.784-.84-2.448-.84-.6-1.152.72-1.2 2.04-.432 2.04.456 1.896 1.752 1.464-1.896-2.04-1.944-3.48-.624-3.552.768-1.8 2.568.648 2.472 1.824 1.536 2.736.84 2.472.816.648 1.32-.648 1.272-2.256.48-2.304-.6-1.248-2.184-1.968 1.656.96 1.728 1.488 1.128 3.192.48 3.168-.552 1.704-1.272Zm13.522.432 1.392-1.704-1.608-2.136-1.632 2.184-2.088.696-2.376-.576-1.32-1.8-.312-2.4.312-2.16 1.512-1.944 1.944-.624 2.208.624 1.656 2.184 1.92-1.776-1.2-1.728-1.704-1.32-3-.384-2.736.672-1.8 1.248-1.392 2.496-.36 2.784.36 2.616.936 2.184L264.791 21l3.168.528 2.376-.312 1.776-1.008Zm15.278-.816.936-2.184.36-2.616-.36-2.784-.936-2.088-2.256-1.656-2.88-.672-2.736.672-2.256 1.656-.936 2.088-.36 2.784.36 2.616.936 2.184 2.256 1.632 2.88.456 2.736-.456 2.256-1.632Zm-2.808-.696-2.304.696-2.112-.696-1.248-1.776-.312-2.4.312-2.448 1.416-1.752 2.04-.624 1.944.624 1.416 1.752.312 2.448-.312 2.4-1.152 1.776Zm10.007 2.232-.144-3.96.264-4.392 1.536-2.04 1.512-.648 2.808.36-.744-2.616-1.752-.264-1.968.576-1.584 1.584-.216-2.352-2.424.816.144 6.648-.336 6.984 2.904-.696Zm19.444.024-.144-6.288-.12-6.84.12-5.76-2.688.672.096 2.904.048 3.048-.648-.48-2.712-.912-3.048.576-1.8 1.656-.936 2.184-.36 2.784.36 2.616.84 2.184 1.8 1.656 3.024.528 2.448-.456 1.272-.864.24 1.344 2.208-.552Zm-3.936-2.352-2.136.6-2.016-.6-1.152-2.04-.312-2.136.312-2.16 1.152-2.04 1.92-.528 2.136.528L311.392 12l.048 1.8-.12 3.024-1.224 1.776Zm29.086-9.408-2.304-2.28-1.512.84 2.184 2.568 1.632-1.128Zm-2.52 1.32-2.544-2.208-1.512.72 2.352 2.568 1.704-1.08Zm-2.904 10.2-4.032-2.088-1.224-1.536-.48-1.728.12-1.944 1.008-2.64 1.656-2.304L333.59 6l3.696-.6-1.752-2.424-3.768.6-4.08.504-5.256.744-5.088.408 1.848 2.76 3.384-.648 3.12-.552 4.392-.672-2.376 2.232-1.944 3.552-.576 3.288.84 3.192 1.512 2.064 2.784 1.776 3.432-1.512Zm27.336 1.176-.048-4.344-.168-4.416-4.944-.336.12-3.048 6.936-.216-1.032-2.184-5.856.168.072-3.264 4.848-1.392-2.328-1.992-2.928.912-3.888.576-4.152.408 1.944 2.064 4.08-.432-.168 3.144-6.696.096.912 2.064 5.712.168.072 3.048-4.92.168-.048 4.08-.288 4.704 2.352.912.312-1.608 7.584.048.12 1.536 2.4-.864ZM347.126 3.672l-3.672-2.496-1.296 2.04 2.88 2.256 2.088-1.8Zm-2.568 8.04 1.632-2.256-3.36-1.464-2.016 1.464 3.744 2.256Zm-.528 10.392 1.392-3.168.672-2.328-1.68-2.376-1.368 4.224-1.872 2.952 2.856.696Zm14.496-3.168-3.96.144-3.576-.144.168-3.792 3.312-.12 3.96.048.096 3.864Zm27.048 2.28.552-8.616V5.592l-4.128.336.192-3.936-2.4-1.032-.144 4.968-2.952-.12.36-1.08-4.584.096.12-1.32 3.744-1.032-1.896-1.44-3.984.72-5.16.384 1.68 1.848 3.072-.216.072 1.08-4.056.264-1.032 1.776 5.136.072-.144.84-4.392.216.24 6.936 3.96.168v1.008l-3.792.072-.696 1.944 4.464-.192-.144 1.752-4.992.24 1.68 2.256 4.584-.528 4.272-.84.888-2.064-3.984.552.048-1.416 3.768-.168.456-1.776-4.176.336-.024-1.152 4.032-.072.264-7.272-4.056.072-.096-1.08 4.224.024.432 1.272 2.52.024-.36 4.608-1.2 4.704-2.688 4.512 2.712.408 2.256-4.584 1.272-5.304.264-4.224 2.04-.288-.048 5.952-.432 4.944-.624 1.008-2.832.264 2.832 2.568 2.88-1.464ZM373.982 10.8l-1.656.048.072-1.248 1.632-.12-.048 1.32Zm.096 2.76-1.896-.072-.048-1.224 1.92-.072.024 1.368Zm-3.984-2.808-1.92-.048-.048-1.272 1.92.12.048 1.2Zm-.096 2.664-1.752.12.024-1.416 1.848.048-.12 1.248Z" fill="#000"/></svg>