<svg width="387" height="24" fill="none" xmlns="http://www.w3.org/2000/svg"><path d="M21.7 5.3L22.8 3h-5.3l-4.7.2L8.4 3l.4-1.4L6.7.3 5.6 2.7 3.5 5.4.8 8l2.7.7 3.2-3.3 5.1-.1 5 .1 4.9-.1zm-3.2 16.9l.9-3 2.1-.3.9-1.9-2.8-.3V14l3.1-.3.8-2.2-3.6.2V7l-4.8-.2-4.9.2-4.6-.3-.4 5-3-.1L.9 14h3.8l-.4 3-.6 2.8 2.3.9.6-1.7 4.8.2h5.4l-.4 1-.4.4h-3l2.4 2.6 3.1-1zm-1-10.3l-3.9-.3.4-2.7 3.5-.1v3.1zm-.5 4.9l-4.2.2.7-3.2h3.8l-.3 3zm-5.8-5.2l-3.8.3.5-2.9h3.7l-.4 2.6zm-.7 5.4l-3.8-.2.6-3.1H11l-.5 3.3zm31.8-6.3l.5-1.8H40V7.4l2-.1.6-1.8-2.6.1V4l-2.1.6.1 1.1-2.8-.1.5 1.6 2.2.3-.1 1.5-3.1-.2.8 2 6.8-.1zM29.7 6.4L31 3.9 28.1 2l-1.7 1.7 3.3 2.7zM46.4 22l1-2.5-5.6.5h-4.5l-3.9-.3-1.9-1.1 1.7.2.8-2.7.5-4.4V8.6l.1-4.6 4.4-.3 4.2.2.1 6.3-.2 6.1-.3.4-.7.1-.1-5.1-3.1.1h-3.4l-.2 6.4 1.8.6.2-1.2 3.7-.2 2 2 2.6-1.3-.2-5.9v-5l.2-5.7-6.7.3-6.8-.1.3 4.1v4.4l-.4 4.6-1 3.5-.7-.3.1-7.9-4.6.2-.7 1.9 2.9.3.2 6.1-3.6 2 1.9 2 3.2-2.4 2.3 1.3 3.4.6 5.4.1 5.6-.2zm-6.2-6.3h-2.9l.1-2.1 2.7-.2.1 2.3zm29.5 5.9l1.1-2.6-4.3.4h-5.3l.2-5.4 6.9-.4.7-2.1-5 .2-2.8-.1-.1-2.2 4.5-.1.2-.8 3.9 2.1 2.4-1.8L67.8 7l-3.6-2.4-2.9-2.8.3-.8L59 .7 56.3 4l-3.7 3-4 2.3 2.4 1.4 3.5-2.2v.9l4.3-.1-.1 2.5-6.7-.1-1 2.1 7.7.2.2 5.4h-4.3l-5-.3 1 2.5h4.7l5 .1 5.1-.1h4.3zM64 7.3l-3.8.1-4.2-.1 1.8-1.6 2-2.1 1.8 1.9L64 7.3zM65.3 19l1.7-3.6-2.1-.7-2 3.3 2.4 1zm-8.2-1.5L55 14.9l-2.2.8 2.2 3.5 2.1-1.7zm37.3 4.3l1-2-6 .2v-1.4H93l.7-1.6-4.2.2-.1-1.2h3.8l.8-1.6-4.6.1v-1.2h4.3l.9-2.1-5 .2.8-1.4-1-.6 2.6.2 2.7-.4-.4-7.7-6.4-.2.8 2.1 3.6-.1v1.4l-4.1-.1.6 1.8 3.5-.2-.1 1.3-3.9.1-.7 1.7h.8l-.8 2.1h-2.9l.6-1.4-.7-.7h.2l2.4.1.1-8-6.3-.2.7 2.3 3.6-.2-.2 1.4-3.8-.1.7 1.6 3 .2.2 1.1-3.7-.1-.7 1.9h2.6L82 12.2l-1.8 2.1.1-5.6.1-6.7h-6.2L74 7.5l.1 6.5-.3 6.2 2.2-.6.5-1.1 1.3.1 2.4-.2v-2.7l1 .4.6-.6-.4 6.8 2.2.7.4-1 5.1.2 5.3-.4zm-7-7.1l-3.4-.2v-1.2l3.3-.1.1 1.5zm-9.2-6l-1.8-.1-.1-4.3 1.8-.1.1 4.5zm9.1 8.3l-3.5.3.2-1.3h3.3v1zm-.2 3l-3.1.1v-1.3l3.4-.3-.3 1.5zM78 16.2l-1.7.1.1-5.5 1.9.2-.3 5.2zm38.3 6l-.3-6.7V2.6l-8.5-.3-6.8.3v6.5l-.1 6.5-.4 6.6 2.6-.5.2-1.2 4.5-.2 5.8.3.2 1.1 2.8.5zM113.4 10l-5.9.2-4.3-.2.2-5 3.9-.2 6 .2.1 5zm0 8H103l.3-5.6h4.9l5.2-.1V18zm20.6 3.2l1-2.7-5.3.3-3.8-.1 2.7-2.5 3.1-3.4 1.7-2.9.6-2.8-.8-2.6-1.8-1.7-3.1-.6-2.7.4-2 1.1-1.7 2.1 1.6 2.3 1.9-2.5 2.4-.9 2.4.5.8 2-.3 1.9-1.9 3.1-2.7 2.9-3.5 3.4-.2 2.7 5.8-.2 5.8.2zm12.4-.2l-.1-6V9l.1-6.3-2.4-.2-2 1.5-2.8 2.1.6 2.5 3.8-2.6v9.6l-.3 5.9 3.1-.5zm11.2-10.2l-.3-3.6-3.1.3-.2 3.1 3.6.2zm0 10.8l-.3-3.6-3.1.3-.2 3.1 3.6.2zm12.9-.8l2.1-2.2.6-3.2.2-3.6-.1-3.6-.5-3-2.1-2.2-3.2-.9-3.7.9-2 2.2-.6 3-.2 3.7.1 3.5.5 3.2 2 2.2 3.7.8 3.2-.8zm-1.3-2.4l-2.2.8-2-.8-1-2.5-.3-4 .3-4.1 1.2-2.5 2-.8 2.2.8 1.1 2.5.1 4.1-.2 4-1.2 2.5zm17.5 2.4l2-2.2.6-3.2.2-3.6-.1-3.6-.5-3-2-2.2-3.3-.9-3.6.9-2.1 2.2-.6 3-.2 3.7.1 3.5.5 3.2 2.1 2.2 3.6.8 3.3-.8zm-1.3-2.4l-2.2.8-2-.8-1.2-2.5-.1-4 .2-4.1 1.2-2.5 2-.8 2.2.8 1.1 2.5.2 4.1-.3 4-1.1 2.5zm27.4-6.2l.2-3.1-2.6 1.7-3 .9-2.6-.4-2.3-1.3-3.1-1-3.7.5-1.7 1.2-.3 2.9 2.7-1.5 2.6-.5 2.6.8 2.4 1.4 2.7.6 4.5-1.1 1.6-1.1zm24.2 6.5l1.5-3.3.3-3.7-.3-4.1-1-2.3-2.8-2.2-4-.7-6 .2.2 5.8-.2 6.3-.1 6.5 6.4.1 3.9-.8 2.1-1.8zm-3-.9l-2.6 1-4-.1V14l.1-5.6.3-3.4h3.5l2.9 1 1.5 2.1.4 3.5-.4 3.8-1.7 2.4zm11.2-12.3l-.2-3.2-2.8.3-.2 2.8 3.2.1zm-.2 15.7l-.1-6.7.1-7.1-2.8.4.1 6.4-.3 7.5 3-.5zm13.6-1.4l.5-2-.6-2.3-1.8-1.5-2.7-.8-2.5-.8-.6-1.2.7-1.2 2-.4 2.1.4 1.9 1.8 1.4-1.9-2-1.9-3.5-.7-3.5.7-1.8 2.7.6 2.4 1.8 1.6 2.8.8 2.5.8.6 1.3-.6 1.4-2.3.4-2.3-.6-1.3-2.2-2 1.7 1 1.7 1.5 1.1 3.2.5 3.2-.6 1.7-1.2zm13.5.4l1.4-1.7-1.6-2.1-1.6 2.2-2.1.6-2.4-.5-1.3-1.8-.3-2.4.3-2.2 1.5-1.9 2-.7 2.1.7 1.7 2.2 1.9-1.8-1.2-1.8-1.7-1.3-3-.4-2.8.7-1.7 1.3-1.4 2.5-.4 2.7.4 2.7.9 2.1 2 1.7 3.2.5 2.3-.3 1.8-1zm15.3-.8l.9-2.2.4-2.6-.4-2.8-.9-2.1-2.3-1.7-2.8-.6-2.8.6-2.2 1.7-1 2.1-.3 2.8.3 2.6 1 2.2 2.2 1.6 2.9.5 2.7-.5 2.3-1.6zm-2.8-.7l-2.3.7-2.1-.7L279 17l-.4-2.5.4-2.5 1.3-1.7 2.1-.6 1.9.6 1.4 1.7.3 2.5-.3 2.5-1.1 1.7zm10 2.3l-.2-4 .3-4.4 1.5-2.1 1.6-.6 2.8.3-.8-2.6-1.8-.2-1.9.6-1.6 1.5-.2-2.3-2.4.8.1 6.6-.3 7 2.9-.6zm19.4 0l-.1-6.3-.1-6.9.1-5.8-2.7.7.1 2.9v3.1l-.6-.5-2.7-.9-3 .6-1.9 1.6-.9 2.2-.4 2.8.4 2.6.8 2.2 1.8 1.7 3.1.5 2.4-.5 1.3-.8.2 1.3 2.2-.5zm-3.9-2.4l-2.1.6-2-.6-1.2-2-.3-2.2.3-2.1 1.2-2.1 1.9-.5 2.1.5 1.4 1.8v1.8l-.1 3-1.2 1.8zm29.1-9.4L336.9 7l-1.5.8 2.2 2.5 1.6-1.1zm-2.5 1.3l-2.6-2.2-1.5.7 2.4 2.6 1.7-1.1zm-2.9 10.2l-4.1-2.1-1.2-1.6-.5-1.6.1-2 1-2.6 1.7-2.3 2.8-2.5 3.7-.6-1.8-2.4-3.7.6-4.1.4-5.3.8-5.1.4 1.9 2.8 3.4-.7 3.1-.5 4.3-.7-2.3 2.3-1.9 3.5-.6 3.3.8 3.2 1.5 2 2.8 1.8 3.5-1.5zm27.2 1.2v-4.4l-.1-4.4-4.9-.3V9.7l7-.2-1-2.2-5.9.2.1-3.3 4.8-1.3-2.3-2-2.9.9-3.9.6-4.2.4 2 2 4.1-.4-.2 3.1-6.7.1.9 2.1 5.7.2.1 3.1h-4.9l-.1 4.2-.3 4.7 2.4.9.3-1.6h7.6l.1 1.6 2.3-.9zM347.1 3.7l-3.6-2.5-1.3 2 2.8 2.3 2.1-1.8zm-2.5 8l1.6-2.2-3.4-1.5-2 1.5 3.8 2.2zm-.6 10.4l1.4-3.1.6-2.4-1.6-2.4-1.4 4.3-1.8 2.9 2.8.7zm14.5-3.1H351l.2-3.9 3.3-.1h3.9l.1 4zm27.1 2.2l.5-8.6v-7L382 6l.2-4-2.4-1-.2 5-2.9-.2.3-1.1-4.5.1.1-1.3 3.7-1-1.9-1.5-3.9.8-5.2.3L367 4l3-.2.1 1-4.1.3-1 1.8 5.2.1-.2.8-4.4.2.3 7 3.9.1v1l-3.8.1-.7 1.9 4.5-.1-.1 1.7-5 .3 1.7 2.2 4.6-.5 4.2-.9.8-2-3.9.5.1-1.4 3.8-.2.4-1.7-4.2.3v-1.2l4-.1.3-7.2-4.1.1-.1-1.1h4.3L377 8l2.5.1-.4 4.6-1.1 4.7-2.7 4.6 2.7.3 2.2-4.5 1.3-5.3.3-4.3 2-.2v5.9l-.5 4.9-.6 1-2.8.3 2.8 2.6 2.9-1.5zM374 10.8h-1.7l.1-1.2 1.6-.1v1.3zm0 2.8l-1.8-.1-.1-1.2 1.9-.1v1.4zm-4-2.8l-1.8-.1-.1-1.3 1.9.2v1.2zm0 2.6l-1.8.1.1-1.4 1.8.1-.1 1.2z" fill="#000"/></svg>