<svg width="89" height="29" fill="none" xmlns="http://www.w3.org/2000/svg"><path d="M26.3 26.3l.7-10.8V6.7l-5.2.5.2-5L19 1l-.1 6.2-3.7-.2.4-1.3-5.7.1.1-1.7 4.7-1.3L12.3 1 7.4 2 1 2.4l2 2.3 3.9-.2.1 1.3-5.1.3L.6 8.4H7l-.2 1.1-5.5.3.3 8.6 5 .2V20H1.9L1 22.4l5.6-.2-.2 2.2-6.3.3 2.1 2.8 5.8-.7 5.3-1 1.1-2.6-5 .7.1-1.8 4.7-.1.6-2.3-5.2.4-.1-1.4 5.1-.1.3-9.1-5.1.1-.1-1.4 5.3.1.5 1.6h3.2l-.5 5.8-1.5 5.8-3.3 5.7 3.4.5 2.8-5.7 1.6-6.7.3-5.3 2.5-.3v7.4l-.6 6.2-.7 1.3-3.6.3 3.6 3.2 3.6-1.8zm-14.5-13H9.7l.1-1.5 2-.2v1.7zm.1 3.4l-2.4-.1V15h2.4v1.7zM7 13.2l-2.5-.1v-1.6l2.4.2.1 1.5zm-.2 3.3l-2.2.2v-1.8L7 15l-.2 1.5zm44.2 5l.1-7-.3-6.7-5.7-.4.1-2.2H51l5.2-.2 1.4-3-7 .2-6.5.2-6.6.1-5.6-.2-1.4 3.1 6.2-.2 5.3.1.1 2.3-5.4.1v6.8l-.2 7 7 .1 7.5-.1zm-2.9-8.1l-3.2-.4.2-2.8L48 10l.1 3.4zm.1 5.6l-3.3-.1.1-3.3 3.1-.1.1 3.5zm-5.9-5.8l-3.1-.2.3-2.7 2.7-.2.1 3.1zm-.1 5.6L39 19l.3-3.3 2.9-.2v3.3zm14.1 8.4l-.1-6.2-.2-6.6V7.3l-3.2 1.2.2 6.1v8.7l-6.1.2-5.9.1-6.4-.2.1-7.7.3-7.9L31.6 9l.1 5.6-.1 6.3v6.5l2.8.9.2-1.9h6l6.2-.1 6.3.2.4 1.8 2.8-1.1zm32-.4l-.8-3.2-3.8-.2.3-8.4 2.6-.4.9-2.7-3.7.1.1-6.6L87 5l.9-2.6-5.9.1-5.2-.1L78 5.5l2.8-.1.1 6.9-2.9.1-.6 3.1 3.4-.5.1 8.5-5.2.5 1.3 2.9 5.6-.2 5.7.1zm-16.6-9l.4-6 .1-6.3-2.7-1v7.1l-.2 4.9 2.4 1.3zm-.2 9.6l2.3-2.9 1.4-3 .9-3.2.4-6.3-.1-8.9-2.9-1.4.5 7.8-.6 7.9-.7 2.8-1.3 2.6-3.6 3.7 3.7.9zM68.8 23l.6-3.2-3.4 1 .3-6.4L68 14l.6-2.5-2.4.2-.1-5.6 2.3-.1.9-2.8-9-.1.5 2.7 2.7.4-.4 5.5-2.7.2.8 2.6 2.1.1v7l-4.1 1 2.2 2.6 3.8-1 3.6-1.2z" fill="#000"/></svg>