<svg width="82" height="25" fill="none" xmlns="http://www.w3.org/2000/svg"><path d="M19.5 24l-.3-7.6.1-7.4.2-8.4-3.7.4.2 9 .3 9.6-3.7-6.6-3.4-5.7L5.7.6l-4.4.7v7.3l-.1 7.6-.2 8.5 3.6-.5-.2-9.2V5.3l3.8 6.3 3.7 6.6 3.8 6.3 3.8-.5zm19.3-1.8l-1.1-3-2.7 2.1-3.2.7-3.1-1-1.4-2.4L27 17l4-.2 4 .2 4.5-.2-.4-4.3-1.3-2.8-2.5-2.1-3.6-.6-3.4.8-2.9 2.1-1.1 2.6-.5 3.5.5 3.3 1.1 2.7 2.6 2 3.6.7 2.8-.3 2.3-.8 2.1-1.4zM36 14l-2.7.1-3.1.2-3.1-.2.2-1.1 1.9-2.3 2.6-.8 2.5.8 1.5 1.9.2 1.4zm23.9 10l2.3-7.6L65 7.5l-3.3-.3-1.7 6.7-1.7 5.6-1.5-5.4L55.2 7l-3.4.4-1.8 6.5-1.6 5.6-1.6-5.4L45.3 7l-3.4.5 2.4 8.4 2.3 8.7 3.2-.6 2.4-7.6 1.2-4.2 1 3.7 2.1 8.7 3.4-.6zm20.7-1.5l.6-2.5-.7-3-2.3-1.7-3.4-1-3.1-1.1-.7-1.4.9-1.5 2.5-.6 2.6.6 2.3 2.2 1.9-2.4-2.6-2.4-4.3-.8-4.5 1-2.2 3.1.8 3.2 2.3 1.8 3.3 1.1 3.2 1 .8 1.7-.8 1.6-2.9.6-2.8-.8-1.6-2.7-2.5 2.1 1.2 2.1 1.9 1.4 4 .7 4-.8 2.1-1.5z" fill="#000"/></svg>