<svg width="237" height="29" fill="none" xmlns="http://www.w3.org/2000/svg"><path d="M25.9 5.3l.4-2.1-1.4-1.6-2.1-.8-1.7 1.4-.6 2.6L22 6.2l2.2.3 1.7-1.2zm-1.1-.8l-.8.6h-1.1l-1-.8.4-1.3.9-.6.9.3.6.8.1 1zM12 24.2l2.7-3.1 2.7-3.8 2.3-5.1 1.7-4.7L19 5.2l-1.1.6-4.2.5-6.3.3-6.4.1 1.5 3.6L8 9.8l5-.3 4-.1-1.2 4-2.8 4.8-3.7 4.2-5.5 3.8 4 1.5 4.2-3.5zm39.7-.2l1.3-3.3-2-.1.5-5.8L52.6 7l-7 .5-6.5.4-7.1-.1.8 5.9.2 6.3v6.6l3.4-1 .2-1.1 3.6-.2 6.2-.3h5.3zm-4.3-3.1l-7.7.4-3.3-.1-.4-4.5V11l5.2-.1 7.4-.5-.5 5.6-.7 4.9zM86.8 4.3l-2.6-3.1-2 .8 2.5 3.5 2.1-1.2zm-3.3 1.3l-2.9-3-1.9.7 2.6 3.5 2.2-1.2zM71 24.7l4.4-4.4 3.5-5.3 2.9-6.3-2.2-2.2-.6.8-4.8.4-1.9.3L74 5.4 71.5 3l-3 4.8-3.2 3.4-5.2 3.7 3.7 1.5 3.8-3.2 2-2.1 3.7-.4 4.1-.3-1.6 3.8L73 18l-2.7 3.1-3.8 2.7-5.3 2.5 4.1 2 5.7-3.6zm37.4-17.4l.8-3.5-5.4.7-4.8.2-5.3-.2L95 8l4.3-.1 4.9-.3 4.2-.3zm-1.4 15l3.1-4.5 2.8-5.3-2-2.7-1 .7-6 .7-7.4.3-5.8-.1 1.6 3.6 5-.5 5.4-.3 5.8-.3-1.9 3.5-2.9 3.7-3.7 3-5 2.4 4.3 1.9 4.1-2.6 3.6-3.5zm34.2-13.7L137 6l-4.2-1.7-4.4-1-3.1 2.5 5.1 1.1 3.7 1.5 3.2 1.9 3.9-1.7zm-4.8 8v-1.8l-2.3-1.4-2.3-1.1-3.1-1.3-3.5 1.8 3.2 1.2 3 1.4-2.6 1.3 2.9 1.2 4.7-1.3zm1 11.9l3-3-8-1.3-4.4-2-3.5-3.9-.8 4.1 2 2.3L130 27l7.4 1.5zm23.9-17.7L157 7.9l-3.3-3.2-1.4 3.8 2.7 2.2 3 2.3 3.3-2.2zm5.8 9.6L171 16l2.5-3.8-1.7-3.8-3.1 5.3-4.4 4.8-5.2 3.4-6.9 2.6 4 2.5 6.2-3 4.7-3.6zm39.7-16.1l-2.6-3.1-2 .8 2.5 3.5 2.1-1.2zm-3.3 1.3l-2.9-3-1.9.7 2.6 3.5 2.2-1.2zM191 24.7l4.4-4.4 3.5-5.3 2.9-6.3-2.2-2.2-.6.8-4.8.4-1.9.3 1.7-2.6-2.4-2.4-3.1 4.8-3.2 3.4-5.2 3.7 3.7 1.5 3.8-3.2 2-2.1 3.7-.4 4.1-.3-1.6 3.8L193 18l-2.7 3.1-3.8 2.7-5.3 2.5 4.1 2 5.7-3.6zm45.3 3.1l-.8-3.2-3.8-.2.3-8.4 2.6-.4.9-2.7-3.7.1.1-6.6L235 6l.9-2.6-5.9.1-5.2-.1 1.2 3.1 2.8-.1.1 6.9-2.9.1-.6 3.1 3.4-.5.1 8.5-5.2.5 1.3 2.9 5.6-.2 5.7.1zm-16.6-9l.4-6 .1-6.3-2.7-1v7.1l-.2 4.9 2.4 1.3zm-.2 9.6l2.3-2.9 1.4-3 .9-3.2.4-6.3-.1-8.9-2.9-1.4.5 7.8-.6 7.9-.7 2.8-1.3 2.6-3.6 3.7 3.7.9zm-2.7-4.4l.6-3.2-3.4 1 .3-6.4 1.7-.4.6-2.5-2.4.2-.1-5.6 2.3-.1.9-2.8-9-.1.5 2.7 2.7.4-.4 5.5-2.7.2.8 2.6 2.1.1v7l-4.1 1 2.2 2.6 3.8-1 3.6-1.2z" fill="#000"/></svg>