<svg width="174" height="29" fill="none" xmlns="http://www.w3.org/2000/svg"><path d="M22.6 24.8l-4.8-3.1-3.3-1.7-1.2-.4-.3-4.4v-3.5l3.1-.2 3-.5 2.3-.8-1.9-2.9-2.6 1-2.3.4-1.6.1.1-5.8-3.6-1.2.2 7.9.3 5.6.2 3.7-.8-.2-3.9-.1-3.3.9-2.1 2.9 1.2 3.2 1.5.8 2.2.6 2.5.3 3.5-.8 2-2 .1-1.8.7.2 2.7 1.5 2.5 2.1 3.6-1.8zM9.9 23l-1.2 1.2-2.2.4-2-.3-1-1.3 1-1.2 2.2-.4 2.3.2 1 .3-.1 1.1zm38.5 4.5l-4.1-4.8-4-4.3-3.9-4.1 4.1-3.5 3.4-3L47 4.7l-1.5-4-3.7 4.5-4 3.8-4.9 4-.4 2.1 4.7 4.5 4.1 4.8 2.7 4 4.4-.9zM80 25.4l1.9-3.1.8-3.3-.3-2.7-2.4-3.1-2.9-1.3-1.3-.3.2-.6-2.7-1.5-.5 2-1.6.2-1.5.5.4-3.5 3.1-.4 4.8-.9.6-3.2-3.5.8-4.6.8.7-3.5L67.8 1l-.4 5.1-2.8.3h-4.3l1.4 3 4-.2 1.5-.2-.1 1-.2 3-1.6.7-3.3 2.5-2 3.2-.5 3.1.9 1.7 2.4.8 3.1-.6.5-.3.1 2.6 3.1-1.4-.2-3 2.2-2.3 2-3 1.1-2.7 1.6.2 2.1 1.3 1.1 2.2-.5 2.8-1.4 2.6-4.8 3.4 4.2 1.1 3-2.5zM69.2 19l.2-4.2 2.6-.7-.3 1-1.1 2-1.4 1.9zm-2.8 2l-1.1.7-1.9.3-.8-.9.4-1.8 1.6-2.1 2-1.2-.2 5zm44.2 2.9l1-2.4.1-3.1-1.7-2.7-3-1.4-3-.3-3 .4-3.2 1 4.9-5.4 5.3-5.5-3-2.3-1 .6-4.4.9-6.2.6 1.9 3 3.9-.8 3.4-.5-3.6 4.3-5 5.5-4.7 4.5 3.4 1.3 2.5-2.3 3.4-1.6 3.2-.7h3.9l2.1 1.1.8 2.4-1.1 2.2-1.4 1.3-.8.2-.9-2.3-2.1-1.7-3-.4-2.6.9-1.2 1.7.3 2.1 2.2 2.1 3.8 1 4.2-.6 2.4-1 2.2-2.1zm-8.2.9l-1.3.1-2-.9-.5-1 .6-.7h1.5l1.2 1 .5 1.5zm41.4-17l.9-2.6-5.5.3-4.3.1V4.5l7.5-1.1-1.9-2.6-5.7 1.4-2.5-.9-.7 5.2-2.2 3.9 2.8.6 2-2.9 2.8.1-.2 2.8 3.3-.7-.3-2.3 4-.2zm-13.2-.1l-.8-2.7-7.5.4.2-1 7.2-1.2-1.8-2.3-5.7 1.3-2.1-.6-1.1 5.2-2 3.5 3 .7 2-3.2h1.8l.3 2.7 2.7.5.3-3.3h3.5zM144.2 26l-4-.6L136 24h4.4l-.1-5.7-.1-6.8H134l-6.3.2-6.6-.1.5 6.7-.4 5.8 4.5-.1-3.4 1.3-4.5.9 3.5 2.4 3.7-1.2 4-1.7-2-1.5 7.9.1-1.8 1.4 3.7 1.7 4.5 1.4 2.9-2.8zM137 15l-6.2.3-6.2-.2.2-1.3 6 .2 6.4-.2-.2 1.2zm0 3.3l-6.1.3-6.1-.3-.4-1.5 6.4.5 6.4-.3-.2 1.3zm0 3.5l-6.2.2-6.1-.3.1-1.5 5.9.3 6.3-.1v1.4zm36 4.6l.1-9-.1-7.8V2l-11.2-.4.3 11.4 7.9-.3v11.1l-.7.8-3.9.3 3.9 3.4 3.7-1.9zm-3-19.9l-5.2-.5V4.3l4.9.3.3 1.9zm-.5 3.8h-4.7V8l5.2.7-.5 1.6zM166.7 23l-.1-8.3-5.7.2-5.7-.5-.4 9.6 2.7 1 .5-1.8 8.7-.2zm-3-2.5l-5.9.2v-3.5l6 .1-.1 3.2zm-12 7.1l.1-7.6.4-7.2 7.3-.2.5-10.8-10.6.2-.4 6.6.1 6.4-.1 6.7-.4 6.8 3.1-.9zM157 6.5l-4.8-.2-.2-2 4.8.4.2 1.8zm-.3 3.5l-4.5.5-.2-2.4 4.9.6-.2 1.3z" fill="#000"/></svg>